<svg width="24" height="24" viewBox="0 0 24 24" fill="none" xmlns="http://www.w3.org/2000/svg">
<path d="M19.6484 9.29439L14.8084 8.87439L12.9184 4.42439C12.5784 3.61439 11.4184 3.61439 11.0784 4.42439L9.18836 8.88439L4.35836 9.29439C3.47836 9.36439 3.11836 10.4644 3.78836 11.0444L7.45836 14.2244L6.35836 18.9444C6.15836 19.8044 7.08836 20.4844 7.84836 20.0244L11.9984 17.5244L16.1484 20.0344C16.9084 20.4944 17.8384 19.8144 17.6384 18.9544L16.5384 14.2244L20.2084 11.0444C20.8784 10.4644 20.5284 9.36439 19.6484 9.29439ZM11.9984 15.6544L8.23836 17.9244L9.23836 13.6444L5.91836 10.7644L10.2984 10.3844L11.9984 6.35439L13.7084 10.3944L18.0884 10.7744L14.7684 13.6544L15.7684 17.9344L11.9984 15.6544Z" fill="#FEEF45"/>
<path d="M11.9984 15.6544L8.23836 17.9244L9.23836 13.6444L5.91836 10.7644L10.2984 10.3844L11.9984 6.35439L13.7084 10.3944L18.0884 10.7744L14.7684 13.6544L15.7684 17.9344L11.9984 15.6544Z" fill="#FEEF45"/>
</svg>
