<svg width="9" height="18" viewBox="0 0 9 18" fill="none" xmlns="http://www.w3.org/2000/svg">
<path d="M16.6484 6.29439L11.8084 5.87439L9.91836 1.42439C9.57836 0.614395 8.41836 0.614395 8.07836 1.42439L6.18836 5.88439L1.35836 6.29439C0.478364 6.36439 0.118364 7.46439 0.788364 8.04439L4.45836 11.2244L3.35836 15.9444C3.15836 16.8044 4.08836 17.4844 4.84836 17.0244L8.99836 14.5244L13.1484 17.0344C13.9084 17.4944 14.8384 16.8144 14.6384 15.9544L13.5384 11.2244L17.2084 8.04439C17.8784 7.46439 17.5284 6.36439 16.6484 6.29439ZM8.99836 12.6544L5.23836 14.9244L6.23836 10.6444L2.91836 7.76439L7.29836 7.38439L8.99836 3.35439L10.7084 7.39439L15.0884 7.77439L11.7684 10.6544L12.7684 14.9344L8.99836 12.6544Z" fill="#FEEF45"/>
<path d="M8.99836 12.6544L5.23836 14.9244L6.23836 10.6444L2.91836 7.76439L7.29836 7.38439L8.99836 3.35439L10.7084 7.39439L15.0884 7.77439L11.7684 10.6544L12.7684 14.9344L8.99836 12.6544Z" fill="#FEEF45"/>
</svg>
