<svg width="198" height="141" viewBox="0 0 198 141" fill="none" xmlns="http://www.w3.org/2000/svg">
<path d="M57.6084 73.7981L98.8056 97.2958L139.392 73.7981V26.4977L98.8056 3L57.6084 26.8028V73.7981Z" stroke="white" stroke-width="4"/>
<path d="M88.7342 46.9437L83.5465 50.3006L88.7342 53.9625M100.941 41.4508L92.7014 61.5916M105.518 46.9437L111.316 50.3006L105.518 53.9625M76.2227 35.6527V68.6104L119.251 67.6949V35.6527M76.2227 35.6527H119.251M76.2227 35.6527V33.0752C76.2227 31.9706 77.1181 31.0752 78.2227 31.0752H117.251C118.355 31.0752 119.251 31.9706 119.251 33.0752V35.6527" stroke="white" stroke-width="3"/>
<path d="M1 133.099V109.296C1 109.296 1 109.296 6.18779 109.296C11.3756 109.296 16.4842 116.327 9.5446 121.502L13.2066 132.488H4.05164M18.6995 132.488L26.939 114.178L34.5681 132.488H23.277M38.8404 113.568L47.0798 131.878L55.0141 113.568M83.6995 133.099V113.568C83.6995 113.568 82.2217 113.564 87.9718 113.568C93.7219 113.573 97.536 119.03 91.0234 123.028L95.6009 132.488M100.484 132.488L108.723 114.484L116.352 132.488H104.756M120.319 113.568H127.643M135.272 113.568H127.796H127.643M127.643 113.568V133.099M163.958 132.793V113.568C163.958 113.568 163.336 113.367 168.535 113.568C173.735 113.769 177.269 118.8 170.977 123.333L175.554 132.488M180.437 113.568L188.371 130.962M188.371 130.962V140.117M188.371 130.962L196 113.568H183.793M68.1361 113.568C62.3382 113.568 60.5072 115.704 60.507 123.028C60.5069 130.352 62.9482 133.099 68.1361 133.099C73.3241 133.099 75.4599 128.521 75.4601 123.028C75.4602 117.535 73.9341 113.568 68.1361 113.568ZM148.394 132.793C143.817 133.099 140.46 129.742 140.46 122.723C140.46 115.704 143.512 113.568 148.394 113.568C153.277 113.568 155.108 115.704 155.413 122.723C155.718 129.742 152.972 132.488 148.394 132.793Z" stroke="white" stroke-width="2"/>
</svg>
